<svg id="Layer_1" data-name="Layer 1" xmlns="http://www.w3.org/2000/svg" viewBox="0 0 251 402.68"><defs><style>.cls-1,.cls-4{fill:none;}.cls-1{stroke:#020202;stroke-width:3px;}.cls-1,.cls-2,.cls-3,.cls-4{stroke-miterlimit:10;}.cls-2{fill:red;}.cls-2,.cls-3,.cls-4{stroke:red;}.cls-3,.cls-5{fill:#fff;}</style></defs><title>sale</title><polyline class="cls-1" points="107.91 37.09 109.66 38.85 111.5 44.18"/><polygon class="cls-2" points="0.5 106.18 51.5 39.18 199.5 39.18 250.5 106.18 250.5 402.18 0.5 402.18 0.5 106.18"/><circle class="cls-3" cx="125" cy="124.68" r="28.5"/><path class="cls-4" d="M474,226.41" transform="translate(-355 -155.32)"/><path class="cls-4" d="M476,226.67" transform="translate(-355 -155.32)"/><path class="cls-1" d="M463.61,193.24c-19.77-23.31-52.84-46.19-83.8-32.09-8,4-12.95,13-13.92,22-1.94,17,4.11,32,14.16,46,8,12,16.07,20.95,28.1,28.91,9,6,18,10.93,28,13.9,12,2,24,3.92,35-3.12a29.32,29.32,0,0,0,11.87-17.09" transform="translate(-355 -155.32)"/><path class="cls-4" d="M474.17,211" transform="translate(-355 -155.32)"/><path class="cls-4" d="M466.63,217.25" transform="translate(-355 -155.32)"/><path class="cls-5" d="M409.61,427.49a22.27,22.27,0,0,0,11.23,3.16c6.41,0,10.15-3.38,10.15-8.28,0-4.53-2.59-7.12-9.14-9.65C413.93,409.92,409,405.81,409,399c0-7.56,6.27-13.18,15.7-13.18a22.09,22.09,0,0,1,10.73,2.38l-1.73,5.11a19.36,19.36,0,0,0-9.22-2.3c-6.62,0-9.14,4-9.14,7.27,0,4.54,2.95,6.77,9.65,9.36,8.21,3.17,12.38,7.13,12.38,14.26,0,7.49-5.54,14-17,14-4.68,0-9.79-1.37-12.39-3.1Z" transform="translate(-355 -155.32)"/><path class="cls-5" d="M453.82,419.85l-5,15.27H442.3l16.49-48.53h7.56l16.56,48.53h-6.7L471,419.85ZM469.73,415,465,401c-1.08-3.17-1.8-6.05-2.52-8.86h-.15c-.72,2.88-1.51,5.83-2.44,8.79l-4.76,14Z" transform="translate(-355 -155.32)"/><path class="cls-5" d="M490,386.59h6.27v43.27H517v5.26H490Z" transform="translate(-355 -155.32)"/><path class="cls-5" d="M549.15,412.37H530.28v17.49h21v5.26H524V386.59h26.21v5.25h-20v15.34h18.87Z" transform="translate(-355 -155.32)"/></svg>
